<mxfile host="app.diagrams.net" agent="Mozilla/5.0 (Windows NT 10.0; Win64; x64) AppleWebKit/537.36 (KHTML, like Gecko) Chrome/136.0.0.0 Safari/537.36" version="27.0.2">
  <diagram name="Página-1" id="T5g_uMiq-Rvw8bGD6Cds">
    <mxGraphModel dx="1426" dy="1952" grid="1" gridSize="10" guides="1" tooltips="1" connect="1" arrows="1" fold="1" page="1" pageScale="1" pageWidth="827" pageHeight="1169" math="0" shadow="0">
      <root>
        <mxCell id="0" />
        <mxCell id="1" parent="0" />
        <mxCell id="bhCfKiLjE3eME5-L3X8l-230" style="edgeStyle=orthogonalEdgeStyle;rounded=0;orthogonalLoop=1;jettySize=auto;html=1;exitX=0.5;exitY=0;exitDx=0;exitDy=0;entryX=0.25;entryY=1;entryDx=0;entryDy=0;" edge="1" parent="1" source="bhCfKiLjE3eME5-L3X8l-154" target="bhCfKiLjE3eME5-L3X8l-155">
          <mxGeometry relative="1" as="geometry" />
        </mxCell>
        <mxCell id="bhCfKiLjE3eME5-L3X8l-154" value="&lt;font style=&quot;font-size: 6px;&quot;&gt;ID_Usuario (PK, único).&lt;br&gt;DNI (único).&lt;br&gt;Nombre y Apellido.&lt;br&gt;Fecha_Nacimiento.&lt;br&gt;Tipo_Usuario (Estudiante, Docente, Administrativo).&lt;br&gt;Fecha_Registro.&lt;br&gt;Dirección (Calle, Número, Ciudad, CP).&lt;br&gt;Estado (Activo, Suspendido, Baja).&lt;br&gt;Límite Prestamos (según tipo de usuario).&lt;/font&gt;&lt;div&gt;&lt;br&gt;&lt;/div&gt;" style="text;html=1;align=left;verticalAlign=middle;whiteSpace=wrap;rounded=0;" vertex="1" parent="1">
          <mxGeometry x="300" y="340" width="140" height="140" as="geometry" />
        </mxCell>
        <mxCell id="bhCfKiLjE3eME5-L3X8l-229" style="edgeStyle=orthogonalEdgeStyle;rounded=0;orthogonalLoop=1;jettySize=auto;html=1;exitX=0.75;exitY=1;exitDx=0;exitDy=0;entryX=0.5;entryY=0;entryDx=0;entryDy=0;" edge="1" parent="1" source="bhCfKiLjE3eME5-L3X8l-155" target="bhCfKiLjE3eME5-L3X8l-175">
          <mxGeometry relative="1" as="geometry" />
        </mxCell>
        <mxCell id="bhCfKiLjE3eME5-L3X8l-155" value="Usuario" style="rounded=0;whiteSpace=wrap;html=1;" vertex="1" parent="1">
          <mxGeometry x="363" y="255" width="50" height="20" as="geometry" />
        </mxCell>
        <mxCell id="bhCfKiLjE3eME5-L3X8l-189" style="edgeStyle=orthogonalEdgeStyle;rounded=0;orthogonalLoop=1;jettySize=auto;html=1;exitX=0;exitY=0;exitDx=0;exitDy=0;entryX=0.5;entryY=1;entryDx=0;entryDy=0;" edge="1" parent="1" source="bhCfKiLjE3eME5-L3X8l-157" target="bhCfKiLjE3eME5-L3X8l-176">
          <mxGeometry relative="1" as="geometry" />
        </mxCell>
        <mxCell id="bhCfKiLjE3eME5-L3X8l-157" value="Libro" style="rounded=0;whiteSpace=wrap;html=1;" vertex="1" parent="1">
          <mxGeometry x="290" y="60" width="30" height="20" as="geometry" />
        </mxCell>
        <mxCell id="bhCfKiLjE3eME5-L3X8l-159" style="edgeStyle=orthogonalEdgeStyle;rounded=0;orthogonalLoop=1;jettySize=auto;html=1;entryX=0.5;entryY=0;entryDx=0;entryDy=0;" edge="1" parent="1" source="bhCfKiLjE3eME5-L3X8l-158" target="bhCfKiLjE3eME5-L3X8l-157">
          <mxGeometry relative="1" as="geometry" />
        </mxCell>
        <mxCell id="bhCfKiLjE3eME5-L3X8l-158" value="&lt;font style=&quot;font-size: 6px;&quot;&gt;ID_Libro (PK).&amp;nbsp;&lt;/font&gt;&lt;div&gt;&lt;font style=&quot;font-size: 6px;&quot;&gt;ISBN (único).&amp;nbsp;&lt;/font&gt;&lt;/div&gt;&lt;div&gt;&lt;font style=&quot;font-size: 6px;&quot;&gt;Título.&amp;nbsp;&lt;/font&gt;&lt;/div&gt;&lt;div&gt;&lt;font style=&quot;font-size: 6px;&quot;&gt;Autor.&amp;nbsp;&lt;/font&gt;&lt;/div&gt;&lt;div&gt;&lt;font style=&quot;font-size: 6px;&quot;&gt;Editorial.&lt;br&gt;Año_Publicacion.&lt;/font&gt;&lt;/div&gt;" style="text;html=1;align=left;verticalAlign=middle;whiteSpace=wrap;rounded=0;" vertex="1" parent="1">
          <mxGeometry x="345" y="-60" width="50" height="80" as="geometry" />
        </mxCell>
        <mxCell id="bhCfKiLjE3eME5-L3X8l-160" value="Categoria" style="rounded=0;whiteSpace=wrap;html=1;" vertex="1" parent="1">
          <mxGeometry x="60" y="60" width="60" height="20" as="geometry" />
        </mxCell>
        <mxCell id="bhCfKiLjE3eME5-L3X8l-162" style="edgeStyle=orthogonalEdgeStyle;rounded=0;orthogonalLoop=1;jettySize=auto;html=1;exitX=0.5;exitY=1;exitDx=0;exitDy=0;entryX=0.5;entryY=0;entryDx=0;entryDy=0;" edge="1" parent="1" source="bhCfKiLjE3eME5-L3X8l-161" target="bhCfKiLjE3eME5-L3X8l-160">
          <mxGeometry relative="1" as="geometry" />
        </mxCell>
        <mxCell id="bhCfKiLjE3eME5-L3X8l-161" value="&lt;font style=&quot;font-size: 6px;&quot;&gt;Estado (Disponible, Prestado, En Reparación).&lt;br/&gt;&lt;/font&gt;" style="text;html=1;align=left;verticalAlign=middle;whiteSpace=wrap;rounded=0;" vertex="1" parent="1">
          <mxGeometry x="60" y="-5" width="60" height="30" as="geometry" />
        </mxCell>
        <mxCell id="bhCfKiLjE3eME5-L3X8l-233" style="edgeStyle=orthogonalEdgeStyle;rounded=0;orthogonalLoop=1;jettySize=auto;html=1;exitX=0;exitY=0.5;exitDx=0;exitDy=0;entryX=1;entryY=0.5;entryDx=0;entryDy=0;" edge="1" parent="1" source="bhCfKiLjE3eME5-L3X8l-163" target="bhCfKiLjE3eME5-L3X8l-178">
          <mxGeometry relative="1" as="geometry">
            <Array as="points">
              <mxPoint x="95" y="265" />
              <mxPoint x="95" y="200" />
            </Array>
          </mxGeometry>
        </mxCell>
        <mxCell id="bhCfKiLjE3eME5-L3X8l-163" value="Prestamo" style="rounded=0;whiteSpace=wrap;html=1;" vertex="1" parent="1">
          <mxGeometry x="115" y="255" width="60" height="20" as="geometry" />
        </mxCell>
        <mxCell id="bhCfKiLjE3eME5-L3X8l-232" style="edgeStyle=orthogonalEdgeStyle;rounded=0;orthogonalLoop=1;jettySize=auto;html=1;exitX=1.006;exitY=0.417;exitDx=0;exitDy=0;entryX=0.25;entryY=1;entryDx=0;entryDy=0;exitPerimeter=0;" edge="1" parent="1" source="bhCfKiLjE3eME5-L3X8l-164" target="bhCfKiLjE3eME5-L3X8l-163">
          <mxGeometry relative="1" as="geometry" />
        </mxCell>
        <mxCell id="bhCfKiLjE3eME5-L3X8l-164" value="&lt;font style=&quot;font-size: 6px;&quot;&gt;ID_Prestamo (PK).&lt;br/&gt;ID_Usuario (FK).&lt;br/&gt;ID_Libro (FK).&lt;br/&gt;Fecha_Prestamo.&lt;br/&gt;Fecha_Devolucion_Estimada.&lt;br/&gt;Fecha_Devolucion_Real.&lt;br/&gt;Estado (Activo, Devuelto, Retrasado).&lt;/font&gt;" style="text;html=1;align=left;verticalAlign=middle;whiteSpace=wrap;rounded=0;" vertex="1" parent="1">
          <mxGeometry y="255" width="80" height="110" as="geometry" />
        </mxCell>
        <mxCell id="bhCfKiLjE3eME5-L3X8l-166" value="Multas" style="rounded=0;whiteSpace=wrap;html=1;" vertex="1" parent="1">
          <mxGeometry x="125" y="440" width="40" height="20" as="geometry" />
        </mxCell>
        <mxCell id="bhCfKiLjE3eME5-L3X8l-193" style="edgeStyle=orthogonalEdgeStyle;rounded=0;orthogonalLoop=1;jettySize=auto;html=1;exitX=0.5;exitY=0;exitDx=0;exitDy=0;entryX=0.5;entryY=1;entryDx=0;entryDy=0;" edge="1" parent="1" source="bhCfKiLjE3eME5-L3X8l-167" target="bhCfKiLjE3eME5-L3X8l-166">
          <mxGeometry relative="1" as="geometry" />
        </mxCell>
        <mxCell id="bhCfKiLjE3eME5-L3X8l-167" value="&lt;font style=&quot;font-size: 6px;&quot;&gt;ID_Multa (PK).&lt;br/&gt;ID_Prestamo (FK).&lt;br/&gt;Monto (calculado por días de retraso).&lt;br/&gt;Fecha_Generacion.&lt;br/&gt;Fecha_Pago.&lt;br/&gt;Estado (Pendiente, Pagada).&lt;/font&gt;" style="text;html=1;align=left;verticalAlign=middle;whiteSpace=wrap;rounded=0;" vertex="1" parent="1">
          <mxGeometry x="115" y="540" width="60" height="110" as="geometry" />
        </mxCell>
        <mxCell id="bhCfKiLjE3eME5-L3X8l-234" style="edgeStyle=orthogonalEdgeStyle;rounded=0;orthogonalLoop=1;jettySize=auto;html=1;exitX=1;exitY=0.5;exitDx=0;exitDy=0;entryX=0.5;entryY=1;entryDx=0;entryDy=0;" edge="1" parent="1" source="bhCfKiLjE3eME5-L3X8l-169" target="bhCfKiLjE3eME5-L3X8l-173">
          <mxGeometry relative="1" as="geometry" />
        </mxCell>
        <mxCell id="bhCfKiLjE3eME5-L3X8l-169" value="Reservas" style="rounded=0;whiteSpace=wrap;html=1;" vertex="1" parent="1">
          <mxGeometry x="540" y="60" width="60" height="20" as="geometry" />
        </mxCell>
        <mxCell id="bhCfKiLjE3eME5-L3X8l-235" style="edgeStyle=orthogonalEdgeStyle;rounded=0;orthogonalLoop=1;jettySize=auto;html=1;exitX=0.5;exitY=1;exitDx=0;exitDy=0;entryX=0.25;entryY=0;entryDx=0;entryDy=0;" edge="1" parent="1" source="bhCfKiLjE3eME5-L3X8l-170" target="bhCfKiLjE3eME5-L3X8l-169">
          <mxGeometry relative="1" as="geometry" />
        </mxCell>
        <mxCell id="bhCfKiLjE3eME5-L3X8l-170" value="&lt;font style=&quot;font-size: 6px;&quot;&gt;ID_Reserva (PK).&lt;br/&gt;ID_Usuario (FK).&lt;br/&gt;ID_Libro (FK).&lt;br/&gt;Fecha_Reserva.&lt;br/&gt;Fecha_Vencimiento_Reserva.&lt;br/&gt;Estado (Activa, Cancelada, Cumplida).&lt;/font&gt;" style="text;html=1;align=left;verticalAlign=middle;whiteSpace=wrap;rounded=0;" vertex="1" parent="1">
          <mxGeometry x="515" y="-90" width="80" height="100" as="geometry" />
        </mxCell>
        <mxCell id="bhCfKiLjE3eME5-L3X8l-173" value="historial" style="shape=datastore;whiteSpace=wrap;html=1;" vertex="1" parent="1">
          <mxGeometry x="610" y="-50" width="80" height="60" as="geometry" />
        </mxCell>
        <mxCell id="bhCfKiLjE3eME5-L3X8l-174" value="historial" style="shape=datastore;whiteSpace=wrap;html=1;" vertex="1" parent="1">
          <mxGeometry x="190" y="580" width="80" height="60" as="geometry" />
        </mxCell>
        <mxCell id="bhCfKiLjE3eME5-L3X8l-175" value="historial" style="shape=datastore;whiteSpace=wrap;html=1;" vertex="1" parent="1">
          <mxGeometry x="410" y="325" width="80" height="60" as="geometry" />
        </mxCell>
        <mxCell id="bhCfKiLjE3eME5-L3X8l-176" value="historial" style="shape=datastore;whiteSpace=wrap;html=1;" vertex="1" parent="1">
          <mxGeometry x="230" y="-100" width="80" height="60" as="geometry" />
        </mxCell>
        <mxCell id="bhCfKiLjE3eME5-L3X8l-178" value="historial" style="shape=datastore;whiteSpace=wrap;html=1;" vertex="1" parent="1">
          <mxGeometry y="170" width="80" height="60" as="geometry" />
        </mxCell>
        <mxCell id="bhCfKiLjE3eME5-L3X8l-183" value="Pide" style="rhombus;whiteSpace=wrap;html=1;" vertex="1" parent="1">
          <mxGeometry x="363" y="140" width="52" height="50" as="geometry" />
        </mxCell>
        <mxCell id="bhCfKiLjE3eME5-L3X8l-190" value="Solicita" style="rhombus;whiteSpace=wrap;html=1;" vertex="1" parent="1">
          <mxGeometry x="545" y="240" width="50" height="50" as="geometry" />
        </mxCell>
        <mxCell id="bhCfKiLjE3eME5-L3X8l-191" value="Tiene" style="rhombus;whiteSpace=wrap;html=1;" vertex="1" parent="1">
          <mxGeometry x="120" y="330" width="50" height="50" as="geometry" />
        </mxCell>
        <mxCell id="bhCfKiLjE3eME5-L3X8l-194" style="edgeStyle=orthogonalEdgeStyle;rounded=0;orthogonalLoop=1;jettySize=auto;html=1;exitX=0.75;exitY=1;exitDx=0;exitDy=0;entryX=0.15;entryY=0.05;entryDx=0;entryDy=0;entryPerimeter=0;" edge="1" parent="1" source="bhCfKiLjE3eME5-L3X8l-166" target="bhCfKiLjE3eME5-L3X8l-174">
          <mxGeometry relative="1" as="geometry" />
        </mxCell>
        <mxCell id="bhCfKiLjE3eME5-L3X8l-203" value="Tiene" style="rhombus;whiteSpace=wrap;html=1;" vertex="1" parent="1">
          <mxGeometry x="410" y="45" width="50" height="50" as="geometry" />
        </mxCell>
        <mxCell id="bhCfKiLjE3eME5-L3X8l-208" value="Solicita" style="rhombus;whiteSpace=wrap;html=1;" vertex="1" parent="1">
          <mxGeometry x="240" y="240" width="50" height="50" as="geometry" />
        </mxCell>
        <mxCell id="bhCfKiLjE3eME5-L3X8l-210" value="Tiene" style="rhombus;whiteSpace=wrap;html=1;" vertex="1" parent="1">
          <mxGeometry x="180" y="45" width="50" height="50" as="geometry" />
        </mxCell>
        <mxCell id="bhCfKiLjE3eME5-L3X8l-214" value="Tiene" style="rhombus;whiteSpace=wrap;html=1;" vertex="1" parent="1">
          <mxGeometry x="120" y="140" width="50" height="50" as="geometry" />
        </mxCell>
        <mxCell id="bhCfKiLjE3eME5-L3X8l-215" value="" style="endArrow=none;html=1;rounded=0;exitX=1;exitY=0.5;exitDx=0;exitDy=0;entryX=0;entryY=0.5;entryDx=0;entryDy=0;" edge="1" parent="1" source="bhCfKiLjE3eME5-L3X8l-236" target="bhCfKiLjE3eME5-L3X8l-155">
          <mxGeometry width="50" height="50" relative="1" as="geometry">
            <mxPoint x="320" y="290" as="sourcePoint" />
            <mxPoint x="370" y="240" as="targetPoint" />
          </mxGeometry>
        </mxCell>
        <mxCell id="bhCfKiLjE3eME5-L3X8l-216" value="" style="endArrow=none;html=1;rounded=0;exitX=1;exitY=0.5;exitDx=0;exitDy=0;entryX=0;entryY=0.5;entryDx=0;entryDy=0;" edge="1" parent="1" source="bhCfKiLjE3eME5-L3X8l-239" target="bhCfKiLjE3eME5-L3X8l-208">
          <mxGeometry width="50" height="50" relative="1" as="geometry">
            <mxPoint x="300" y="275" as="sourcePoint" />
            <mxPoint x="360" y="310" as="targetPoint" />
            <Array as="points" />
          </mxGeometry>
        </mxCell>
        <mxCell id="bhCfKiLjE3eME5-L3X8l-217" value="" style="endArrow=none;html=1;rounded=0;exitX=0.5;exitY=1;exitDx=0;exitDy=0;entryX=0.5;entryY=0;entryDx=0;entryDy=0;" edge="1" parent="1" source="bhCfKiLjE3eME5-L3X8l-241" target="bhCfKiLjE3eME5-L3X8l-191">
          <mxGeometry width="50" height="50" relative="1" as="geometry">
            <mxPoint x="185" y="275" as="sourcePoint" />
            <mxPoint x="250" y="275" as="targetPoint" />
            <Array as="points" />
          </mxGeometry>
        </mxCell>
        <mxCell id="bhCfKiLjE3eME5-L3X8l-218" value="" style="endArrow=none;html=1;rounded=0;exitX=0.5;exitY=1;exitDx=0;exitDy=0;entryX=0.5;entryY=0;entryDx=0;entryDy=0;" edge="1" parent="1" source="bhCfKiLjE3eME5-L3X8l-243" target="bhCfKiLjE3eME5-L3X8l-166">
          <mxGeometry width="50" height="50" relative="1" as="geometry">
            <mxPoint x="195" y="285" as="sourcePoint" />
            <mxPoint x="260" y="285" as="targetPoint" />
            <Array as="points" />
          </mxGeometry>
        </mxCell>
        <mxCell id="bhCfKiLjE3eME5-L3X8l-219" value="" style="endArrow=none;html=1;rounded=0;entryX=0;entryY=0.5;entryDx=0;entryDy=0;exitX=1;exitY=0.5;exitDx=0;exitDy=0;" edge="1" parent="1" source="bhCfKiLjE3eME5-L3X8l-262" target="bhCfKiLjE3eME5-L3X8l-210">
          <mxGeometry width="50" height="50" relative="1" as="geometry">
            <mxPoint x="130" y="70" as="sourcePoint" />
            <mxPoint x="175" y="80" as="targetPoint" />
            <Array as="points" />
          </mxGeometry>
        </mxCell>
        <mxCell id="bhCfKiLjE3eME5-L3X8l-220" value="" style="endArrow=none;html=1;rounded=0;exitX=1;exitY=0.5;exitDx=0;exitDy=0;entryX=0;entryY=0.5;entryDx=0;entryDy=0;" edge="1" parent="1" source="bhCfKiLjE3eME5-L3X8l-264" target="bhCfKiLjE3eME5-L3X8l-157">
          <mxGeometry width="50" height="50" relative="1" as="geometry">
            <mxPoint x="290" y="140" as="sourcePoint" />
            <mxPoint x="355" y="140" as="targetPoint" />
            <Array as="points" />
          </mxGeometry>
        </mxCell>
        <mxCell id="bhCfKiLjE3eME5-L3X8l-221" value="" style="endArrow=none;html=1;rounded=0;exitX=1;exitY=0.5;exitDx=0;exitDy=0;entryX=0;entryY=0.5;entryDx=0;entryDy=0;" edge="1" parent="1" source="bhCfKiLjE3eME5-L3X8l-267" target="bhCfKiLjE3eME5-L3X8l-203">
          <mxGeometry width="50" height="50" relative="1" as="geometry">
            <mxPoint x="205" y="295" as="sourcePoint" />
            <mxPoint x="270" y="295" as="targetPoint" />
            <Array as="points" />
          </mxGeometry>
        </mxCell>
        <mxCell id="bhCfKiLjE3eME5-L3X8l-222" value="" style="endArrow=none;html=1;rounded=0;exitX=1;exitY=0.5;exitDx=0;exitDy=0;entryX=0;entryY=0.5;entryDx=0;entryDy=0;" edge="1" parent="1" source="bhCfKiLjE3eME5-L3X8l-266" target="bhCfKiLjE3eME5-L3X8l-169">
          <mxGeometry width="50" height="50" relative="1" as="geometry">
            <mxPoint x="215" y="305" as="sourcePoint" />
            <mxPoint x="510" y="70" as="targetPoint" />
            <Array as="points" />
          </mxGeometry>
        </mxCell>
        <mxCell id="bhCfKiLjE3eME5-L3X8l-223" value="" style="endArrow=none;html=1;rounded=0;exitX=0.5;exitY=1;exitDx=0;exitDy=0;entryX=0.5;entryY=0;entryDx=0;entryDy=0;" edge="1" parent="1" source="bhCfKiLjE3eME5-L3X8l-237" target="bhCfKiLjE3eME5-L3X8l-155">
          <mxGeometry width="50" height="50" relative="1" as="geometry">
            <mxPoint x="225" y="315" as="sourcePoint" />
            <mxPoint x="290" y="315" as="targetPoint" />
            <Array as="points" />
          </mxGeometry>
        </mxCell>
        <mxCell id="bhCfKiLjE3eME5-L3X8l-224" value="" style="endArrow=none;html=1;rounded=0;exitX=1;exitY=1;exitDx=0;exitDy=0;entryX=0;entryY=0;entryDx=0;entryDy=0;" edge="1" parent="1" source="bhCfKiLjE3eME5-L3X8l-247" target="bhCfKiLjE3eME5-L3X8l-183">
          <mxGeometry width="50" height="50" relative="1" as="geometry">
            <mxPoint x="235" y="325" as="sourcePoint" />
            <mxPoint x="300" y="325" as="targetPoint" />
            <Array as="points" />
          </mxGeometry>
        </mxCell>
        <mxCell id="bhCfKiLjE3eME5-L3X8l-225" value="" style="endArrow=none;html=1;rounded=0;exitX=1;exitY=0.5;exitDx=0;exitDy=0;entryX=0.5;entryY=1;entryDx=0;entryDy=0;" edge="1" parent="1" source="bhCfKiLjE3eME5-L3X8l-259" target="bhCfKiLjE3eME5-L3X8l-157">
          <mxGeometry width="50" height="50" relative="1" as="geometry">
            <mxPoint x="240" y="129.99999999999977" as="sourcePoint" />
            <mxPoint x="335" y="170" as="targetPoint" />
            <Array as="points">
              <mxPoint x="305" y="165" />
            </Array>
          </mxGeometry>
        </mxCell>
        <mxCell id="bhCfKiLjE3eME5-L3X8l-227" value="" style="endArrow=none;html=1;rounded=0;entryX=1;entryY=0.5;entryDx=0;entryDy=0;exitX=0;exitY=0.5;exitDx=0;exitDy=0;" edge="1" parent="1" source="bhCfKiLjE3eME5-L3X8l-274" target="bhCfKiLjE3eME5-L3X8l-155">
          <mxGeometry width="50" height="50" relative="1" as="geometry">
            <mxPoint x="320" y="360" as="sourcePoint" />
            <mxPoint x="370" y="310" as="targetPoint" />
          </mxGeometry>
        </mxCell>
        <mxCell id="bhCfKiLjE3eME5-L3X8l-228" value="" style="endArrow=none;html=1;rounded=0;entryX=0.5;entryY=1;entryDx=0;entryDy=0;exitX=0.5;exitY=0;exitDx=0;exitDy=0;" edge="1" parent="1" source="bhCfKiLjE3eME5-L3X8l-272" target="bhCfKiLjE3eME5-L3X8l-169">
          <mxGeometry width="50" height="50" relative="1" as="geometry">
            <mxPoint x="560" y="275" as="sourcePoint" />
            <mxPoint x="423" y="275" as="targetPoint" />
          </mxGeometry>
        </mxCell>
        <mxCell id="bhCfKiLjE3eME5-L3X8l-238" value="" style="endArrow=none;html=1;rounded=0;exitX=1;exitY=0.5;exitDx=0;exitDy=0;entryX=0;entryY=0.5;entryDx=0;entryDy=0;" edge="1" parent="1" source="bhCfKiLjE3eME5-L3X8l-208" target="bhCfKiLjE3eME5-L3X8l-236">
          <mxGeometry width="50" height="50" relative="1" as="geometry">
            <mxPoint x="290" y="265" as="sourcePoint" />
            <mxPoint x="363" y="265" as="targetPoint" />
          </mxGeometry>
        </mxCell>
        <mxCell id="bhCfKiLjE3eME5-L3X8l-236" value="1" style="text;html=1;align=center;verticalAlign=middle;whiteSpace=wrap;rounded=0;" vertex="1" parent="1">
          <mxGeometry x="290" y="255" width="20" height="20" as="geometry" />
        </mxCell>
        <mxCell id="bhCfKiLjE3eME5-L3X8l-240" value="" style="endArrow=none;html=1;rounded=0;exitX=1;exitY=0.5;exitDx=0;exitDy=0;entryX=0;entryY=0.5;entryDx=0;entryDy=0;" edge="1" parent="1" source="bhCfKiLjE3eME5-L3X8l-163" target="bhCfKiLjE3eME5-L3X8l-239">
          <mxGeometry width="50" height="50" relative="1" as="geometry">
            <mxPoint x="175" y="265" as="sourcePoint" />
            <mxPoint x="240" y="265" as="targetPoint" />
            <Array as="points" />
          </mxGeometry>
        </mxCell>
        <mxCell id="bhCfKiLjE3eME5-L3X8l-239" value="1" style="text;html=1;align=center;verticalAlign=middle;whiteSpace=wrap;rounded=0;" vertex="1" parent="1">
          <mxGeometry x="220" y="255" width="20" height="20" as="geometry" />
        </mxCell>
        <mxCell id="bhCfKiLjE3eME5-L3X8l-242" value="" style="endArrow=none;html=1;rounded=0;exitX=0.5;exitY=1;exitDx=0;exitDy=0;entryX=0.5;entryY=0;entryDx=0;entryDy=0;" edge="1" parent="1" source="bhCfKiLjE3eME5-L3X8l-163" target="bhCfKiLjE3eME5-L3X8l-241">
          <mxGeometry width="50" height="50" relative="1" as="geometry">
            <mxPoint x="145" y="275" as="sourcePoint" />
            <mxPoint x="145" y="330" as="targetPoint" />
            <Array as="points" />
          </mxGeometry>
        </mxCell>
        <mxCell id="bhCfKiLjE3eME5-L3X8l-241" value="1" style="text;html=1;align=center;verticalAlign=middle;whiteSpace=wrap;rounded=0;" vertex="1" parent="1">
          <mxGeometry x="135" y="310" width="20" height="20" as="geometry" />
        </mxCell>
        <mxCell id="bhCfKiLjE3eME5-L3X8l-244" value="" style="endArrow=none;html=1;rounded=0;exitX=0.5;exitY=1;exitDx=0;exitDy=0;entryX=0.5;entryY=0;entryDx=0;entryDy=0;" edge="1" parent="1" source="bhCfKiLjE3eME5-L3X8l-191" target="bhCfKiLjE3eME5-L3X8l-243">
          <mxGeometry width="50" height="50" relative="1" as="geometry">
            <mxPoint x="145" y="380" as="sourcePoint" />
            <mxPoint x="145" y="440" as="targetPoint" />
            <Array as="points" />
          </mxGeometry>
        </mxCell>
        <mxCell id="bhCfKiLjE3eME5-L3X8l-243" value="1" style="text;html=1;align=center;verticalAlign=middle;whiteSpace=wrap;rounded=0;" vertex="1" parent="1">
          <mxGeometry x="135" y="380" width="20" height="20" as="geometry" />
        </mxCell>
        <mxCell id="bhCfKiLjE3eME5-L3X8l-257" value="" style="endArrow=none;html=1;rounded=0;exitX=0.5;exitY=0;exitDx=0;exitDy=0;entryX=0.5;entryY=1;entryDx=0;entryDy=0;" edge="1" parent="1" source="bhCfKiLjE3eME5-L3X8l-250" target="bhCfKiLjE3eME5-L3X8l-214">
          <mxGeometry width="50" height="50" relative="1" as="geometry">
            <mxPoint x="320" y="220" as="sourcePoint" />
            <mxPoint x="370" y="170" as="targetPoint" />
          </mxGeometry>
        </mxCell>
        <mxCell id="bhCfKiLjE3eME5-L3X8l-258" value="" style="endArrow=none;html=1;rounded=0;exitX=0.5;exitY=0;exitDx=0;exitDy=0;entryX=0.5;entryY=1;entryDx=0;entryDy=0;" edge="1" parent="1" source="bhCfKiLjE3eME5-L3X8l-163" target="bhCfKiLjE3eME5-L3X8l-250">
          <mxGeometry width="50" height="50" relative="1" as="geometry">
            <mxPoint x="145" y="255" as="sourcePoint" />
            <mxPoint x="145" y="190" as="targetPoint" />
          </mxGeometry>
        </mxCell>
        <mxCell id="bhCfKiLjE3eME5-L3X8l-250" value="N" style="text;html=1;align=center;verticalAlign=middle;whiteSpace=wrap;rounded=0;" vertex="1" parent="1">
          <mxGeometry x="135" y="200" width="20" height="20" as="geometry" />
        </mxCell>
        <mxCell id="bhCfKiLjE3eME5-L3X8l-261" value="" style="endArrow=none;html=1;rounded=0;exitX=1;exitY=0.5;exitDx=0;exitDy=0;" edge="1" parent="1" source="bhCfKiLjE3eME5-L3X8l-214">
          <mxGeometry width="50" height="50" relative="1" as="geometry">
            <mxPoint x="170" y="165" as="sourcePoint" />
            <mxPoint x="190" y="165" as="targetPoint" />
            <Array as="points" />
          </mxGeometry>
        </mxCell>
        <mxCell id="bhCfKiLjE3eME5-L3X8l-259" value="1" style="text;html=1;align=center;verticalAlign=middle;whiteSpace=wrap;rounded=0;" vertex="1" parent="1">
          <mxGeometry x="190" y="155" width="20" height="20" as="geometry" />
        </mxCell>
        <mxCell id="bhCfKiLjE3eME5-L3X8l-263" value="" style="endArrow=none;html=1;rounded=0;entryX=0;entryY=0.5;entryDx=0;entryDy=0;exitX=1;exitY=0.5;exitDx=0;exitDy=0;" edge="1" parent="1" source="bhCfKiLjE3eME5-L3X8l-160" target="bhCfKiLjE3eME5-L3X8l-262">
          <mxGeometry width="50" height="50" relative="1" as="geometry">
            <mxPoint x="120" y="70" as="sourcePoint" />
            <mxPoint x="180" y="70" as="targetPoint" />
            <Array as="points" />
          </mxGeometry>
        </mxCell>
        <mxCell id="bhCfKiLjE3eME5-L3X8l-262" value="N" style="text;html=1;align=center;verticalAlign=middle;whiteSpace=wrap;rounded=0;" vertex="1" parent="1">
          <mxGeometry x="160" y="60" width="20" height="20" as="geometry" />
        </mxCell>
        <mxCell id="bhCfKiLjE3eME5-L3X8l-265" value="" style="endArrow=none;html=1;rounded=0;exitX=1;exitY=0.5;exitDx=0;exitDy=0;entryX=0;entryY=0.5;entryDx=0;entryDy=0;" edge="1" parent="1" source="bhCfKiLjE3eME5-L3X8l-210" target="bhCfKiLjE3eME5-L3X8l-264">
          <mxGeometry width="50" height="50" relative="1" as="geometry">
            <mxPoint x="230" y="70" as="sourcePoint" />
            <mxPoint x="290" y="70" as="targetPoint" />
            <Array as="points" />
          </mxGeometry>
        </mxCell>
        <mxCell id="bhCfKiLjE3eME5-L3X8l-264" value="N" style="text;html=1;align=center;verticalAlign=middle;whiteSpace=wrap;rounded=0;" vertex="1" parent="1">
          <mxGeometry x="230" y="60" width="20" height="20" as="geometry" />
        </mxCell>
        <mxCell id="bhCfKiLjE3eME5-L3X8l-268" value="" style="endArrow=none;html=1;rounded=0;exitX=1;exitY=0.5;exitDx=0;exitDy=0;entryX=0;entryY=0.5;entryDx=0;entryDy=0;" edge="1" parent="1" source="bhCfKiLjE3eME5-L3X8l-157" target="bhCfKiLjE3eME5-L3X8l-267">
          <mxGeometry width="50" height="50" relative="1" as="geometry">
            <mxPoint x="320" y="70" as="sourcePoint" />
            <mxPoint x="410" y="70" as="targetPoint" />
            <Array as="points" />
          </mxGeometry>
        </mxCell>
        <mxCell id="bhCfKiLjE3eME5-L3X8l-267" value="1" style="text;html=1;align=center;verticalAlign=middle;whiteSpace=wrap;rounded=0;" vertex="1" parent="1">
          <mxGeometry x="390" y="60" width="20" height="20" as="geometry" />
        </mxCell>
        <mxCell id="bhCfKiLjE3eME5-L3X8l-269" value="" style="endArrow=none;html=1;rounded=0;exitX=1;exitY=0.5;exitDx=0;exitDy=0;entryX=0;entryY=0.5;entryDx=0;entryDy=0;" edge="1" parent="1" source="bhCfKiLjE3eME5-L3X8l-203" target="bhCfKiLjE3eME5-L3X8l-266">
          <mxGeometry width="50" height="50" relative="1" as="geometry">
            <mxPoint x="460" y="70" as="sourcePoint" />
            <mxPoint x="540" y="70" as="targetPoint" />
            <Array as="points" />
          </mxGeometry>
        </mxCell>
        <mxCell id="bhCfKiLjE3eME5-L3X8l-266" value="1" style="text;html=1;align=center;verticalAlign=middle;whiteSpace=wrap;rounded=0;" vertex="1" parent="1">
          <mxGeometry x="460" y="60" width="20" height="20" as="geometry" />
        </mxCell>
        <mxCell id="bhCfKiLjE3eME5-L3X8l-270" value="" style="endArrow=none;html=1;rounded=0;exitX=0.5;exitY=1;exitDx=0;exitDy=0;entryX=0.5;entryY=0;entryDx=0;entryDy=0;" edge="1" parent="1" source="bhCfKiLjE3eME5-L3X8l-183" target="bhCfKiLjE3eME5-L3X8l-237">
          <mxGeometry width="50" height="50" relative="1" as="geometry">
            <mxPoint x="389" y="190" as="sourcePoint" />
            <mxPoint x="388" y="255" as="targetPoint" />
            <Array as="points" />
          </mxGeometry>
        </mxCell>
        <mxCell id="bhCfKiLjE3eME5-L3X8l-237" value="N" style="text;html=1;align=center;verticalAlign=middle;whiteSpace=wrap;rounded=0;" vertex="1" parent="1">
          <mxGeometry x="379" y="190" width="20" height="20" as="geometry" />
        </mxCell>
        <mxCell id="bhCfKiLjE3eME5-L3X8l-271" value="" style="endArrow=none;html=1;rounded=0;exitX=1;exitY=1;exitDx=0;exitDy=0;entryX=0;entryY=0;entryDx=0;entryDy=0;" edge="1" parent="1" source="bhCfKiLjE3eME5-L3X8l-157" target="bhCfKiLjE3eME5-L3X8l-247">
          <mxGeometry width="50" height="50" relative="1" as="geometry">
            <mxPoint x="320" y="80" as="sourcePoint" />
            <mxPoint x="376" y="152" as="targetPoint" />
            <Array as="points" />
          </mxGeometry>
        </mxCell>
        <mxCell id="bhCfKiLjE3eME5-L3X8l-247" value="1" style="text;html=1;align=center;verticalAlign=middle;whiteSpace=wrap;rounded=0;" vertex="1" parent="1">
          <mxGeometry x="359" y="135" width="20" height="20" as="geometry" />
        </mxCell>
        <mxCell id="bhCfKiLjE3eME5-L3X8l-273" value="" style="endArrow=none;html=1;rounded=0;entryX=0.5;entryY=1;entryDx=0;entryDy=0;exitX=0.5;exitY=0;exitDx=0;exitDy=0;" edge="1" parent="1" source="bhCfKiLjE3eME5-L3X8l-190" target="bhCfKiLjE3eME5-L3X8l-272">
          <mxGeometry width="50" height="50" relative="1" as="geometry">
            <mxPoint x="570" y="240" as="sourcePoint" />
            <mxPoint x="570" y="80" as="targetPoint" />
          </mxGeometry>
        </mxCell>
        <mxCell id="bhCfKiLjE3eME5-L3X8l-272" value="1" style="text;html=1;align=center;verticalAlign=middle;whiteSpace=wrap;rounded=0;" vertex="1" parent="1">
          <mxGeometry x="560" y="210" width="20" height="20" as="geometry" />
        </mxCell>
        <mxCell id="bhCfKiLjE3eME5-L3X8l-275" value="" style="endArrow=none;html=1;rounded=0;entryX=1;entryY=0.5;entryDx=0;entryDy=0;exitX=0;exitY=0.5;exitDx=0;exitDy=0;" edge="1" parent="1" source="bhCfKiLjE3eME5-L3X8l-190" target="bhCfKiLjE3eME5-L3X8l-274">
          <mxGeometry width="50" height="50" relative="1" as="geometry">
            <mxPoint x="545" y="265" as="sourcePoint" />
            <mxPoint x="413" y="265" as="targetPoint" />
          </mxGeometry>
        </mxCell>
        <mxCell id="bhCfKiLjE3eME5-L3X8l-274" value="N" style="text;html=1;align=center;verticalAlign=middle;whiteSpace=wrap;rounded=0;" vertex="1" parent="1">
          <mxGeometry x="520" y="255" width="20" height="20" as="geometry" />
        </mxCell>
      </root>
    </mxGraphModel>
  </diagram>
</mxfile>
